<svg t="1721121236674" class="icon" viewBox="0 0 1118 1024" version="1.1" xmlns="http://www.w3.org/2000/svg" p-id="4762"
     width="200" height="200">
    <path d="M1070.670766 620.606061 46.670766 620.606061C20.977675 620.606061 0.125311 599.753697 0.125311 574.060606 0.125311 548.336485 20.977675 527.515152 46.670766 527.515152L1070.670766 527.515152C1096.363857 527.515152 1117.216221 548.336485 1117.216221 574.060606 1117.216221 599.753697 1096.363857 620.606061 1070.670766 620.606061ZM1070.670766 217.212121 419.034402 217.212121C393.341311 217.212121 372.488948 196.359758 372.488948 170.666667 372.488948 144.973576 393.341311 124.121212 419.034402 124.121212L1070.670766 124.121212C1096.363857 124.121212 1117.216221 144.973576 1117.216221 170.666667 1117.216221 196.359758 1096.363857 217.212121 1070.670766 217.212121ZM79.780099 327.835152C61.534281 346.08097 31.931372 346.08097 13.685554 327.835152 9.310281 323.428848 6.11416 318.339879 3.817918 312.971636 3.817918 312.940606 3.786887 312.909576 3.786887 312.909576 1.273433 306.920727 0.032221 300.590545 0.125311 294.198303L0.125311 48.09697C0.125311 47.693576 0.125311 47.321212 0.125311 46.917818L0.125311 46.545455C0.125311 42.97697 1.397554 39.842909 2.142281 36.522667 2.700827 34.288485 2.638766 31.961212 3.507614 29.820121 10.24119 12.412121 26.904463-0.03103 46.670766-0.03103 60.168948-0.03103 72.084584 5.926788 80.586887 15.080727L233.969675 137.619394C243.216705 146.866424 247.685069 158.999273 247.560948 171.132121 247.685069 183.26497 243.216705 195.428848 233.969675 204.644848L79.780099 327.835152ZM46.670766 930.909091 1070.670766 930.909091C1096.363857 930.909091 1117.216221 951.730424 1117.216221 977.454545 1117.216221 1003.147636 1096.363857 1024 1070.670766 1024L46.670766 1024C20.977675 1024 0.125311 1003.147636 0.125311 977.454545 0.125311 951.730424 20.977675 930.909091 46.670766 930.909091Z"
          p-id="4763" fill="#eee"></path>
</svg>