<svg t="1720342088709" class="icon" viewBox="0 0 1024 1024" version="1.1" xmlns="http://www.w3.org/2000/svg" p-id="2564"
     width="200" height="200">
    <path d="M328.178326 0h367.600683c114.128578 0 155.51352 11.860839 197.239782 34.174576a232.608975 232.608975 0 0 1 96.763968 96.763968c22.313737 41.726261 34.174576 83.111204 34.174576 197.239782v367.600683c0 114.128578-11.860839 155.51352-34.174576 197.239782a232.608975 232.608975 0 0 1-96.763968 96.763968c-41.726261 22.313737-83.111204 34.174576-197.239782 34.174576H328.178326c-114.128578 0-155.51352-11.860839-197.239782-34.174576A232.608975 232.608975 0 0 1 34.174576 892.976126C11.860839 851.292529 0 809.907587 0 695.779009V328.178326c0-114.128578 11.860839-155.51352 34.174576-197.239782A232.608975 232.608975 0 0 1 130.981209 34.174576C172.664806 11.860839 214.049748 0 328.178326 0z m163.961168 85.799092c-119.163035 4.693138-234.699554 62.845381-309.789759 155.385525A422.851715 422.851715 0 0 0 85.329778 508.992125a422.425066 422.425066 0 0 0 50.00325 204.023499 429.678097 429.678097 0 0 0 137.380942 152.313654A424.174326 424.174326 0 0 0 514.666556 938.627557a424.942294 424.942294 0 0 0 224.075996-65.10662 428.270155 428.270155 0 0 0 167.45969-198.263739c33.363943-79.698013 41.043623-169.635599 22.740385-253.984084-23.892338-112.293988-95.825341-213.11112-193.783925-272.88463a425.624932 425.624932 0 0 0-243.019208-62.546727z m0.426649 53.032457a373.317778 373.317778 0 0 1 202.359568 47.272697 374.72572 374.72572 0 0 1 170.232907 203.554185c26.196242 74.748885 27.04954 157.860089 3.711846 233.419607a373.957752 373.957752 0 0 1-136.954294 190.968043 371.525853 371.525853 0 0 1-222.924045 71.591684 370.331236 370.331236 0 0 1-210.252572-66.727886 372.464481 372.464481 0 0 1-143.738011-195.746511 376.688305 376.688305 0 0 1-1.322612-218.316237 374.597725 374.597725 0 0 1 141.647431-197.410441 370.97121 370.97121 0 0 1 197.197117-68.605141zM369.136619 309.576434c-13.951419 135.077038-26.750885 270.282072-40.872963 405.316445 33.278613 0.469314 66.514562-0.127995 99.75051 0.34132 13.52477-135.333028 28.926795-270.495396 42.067581-405.828424-33.619933 0.682638-67.28253 0.383984-100.945128 0.170659z m218.657556 27.390859c-35.198533 34.814549-72.146327 67.879838-106.576892 103.505021-18.857881 20.735136-34.47323 48.339319-29.950752 77.266114 1.407941 20.351152 12.756802 37.971751 24.190992 54.184409 33.491938 47.187367 64.893296 95.825341 98.129244 143.183367 42.750219-0.213324 85.500437 0.17066 128.250656-0.17066-41.384942-52.691138-81.575268-106.363568-121.936252-159.865339-9.940919-13.823424-22.399067-27.945502-23.593684-45.694096-1.706596-15.487355 9.300946-28.158827 19.11387-38.654389 54.269739-53.75776 108.880797-107.088871 162.894547-161.102621-40.446315 0.511979-80.892629 0.213324-121.338945 0.042665-9.898254 8.916962-19.412524 18.217908-29.182784 27.305529z"
          fill="#CCCCCC" p-id="2565"></path>
</svg>