<svg t="1720930145985" class="icon" viewBox="0 0 1024 1024" version="1.1" xmlns="http://www.w3.org/2000/svg" p-id="4919"
     width="200" height="200">
    <path d="M686.480358 119.560026c0-32.377408 26.325575-58.644655 58.644655-58.644655 32.386618 0 58.645678 26.420743 58.645678 58.644655l0 781.930779c0 32.376385-26.325575 58.644655-58.645678 58.644655-32.385595 0-58.644655-26.419719-58.644655-58.644655L686.480358 119.560026zM217.321072 119.560026c0-32.377408 26.325575-58.644655 58.645678-58.644655 32.385595 0 58.644655 26.420743 58.644655 58.644655l0 781.930779c0 32.376385-26.325575 58.644655-58.644655 58.644655-32.385595 0-58.645678-26.419719-58.645678-58.644655L217.321072 119.560026z"
          fill="#7D7D7D" p-id="4920"></path>
</svg>